<svg width="1024" height="1024" xmlns="http://www.w3.org/2000/svg" fill="none">
 <title>App Icon Logo</title>
 <desc>Rounded-square app icon version of the traced logo in SVG format, without outer shadow.</desc>
 <defs>
  <linearGradient y2="0.94255" x2="0.90851" y1="0.05745" x1="0.09149" id="bg">
   <stop stop-color="#FFFFFF" offset="0"/>
   <stop stop-color="#EAF4FF" offset="1"/>
  </linearGradient>
 </defs>
 <g>
  <title>Layer 1</title>
  <rect stroke="null" id="svg_1" fill="url(#bg)" rx="180" height="1024" width="1023" y="0" x="0"/>
  <g id="svg_2" transform="translate(203 108) scale(1.65 1.65)">
   <path id="svg_3" clip-rule="evenodd" fill-rule="evenodd" fill="#1197D5" d="m0,55l0,16l1,1l0,15l2,17l0,16l1,1l0,15l1,1l0,15l1,1l0,15l1,1l0,15l2,17l0,16l1,1l0,15l1,1l0,15l1,1l0,15l1,1l0,15l2,17l4,80l1,2l74,-13l3,-1l24,-18l35,-31l-71,10l-7,-1l-17,-225l3,-1l1,1l22,1l9,-14l17,-20l-113,-13zm237,-55l-3,0l-12,6l-39,23l-23,16l-30,25l-19,20l-11,15l-9,17l-5,18l0,20l4,13l7,12l14,14l11,8l57,29l16,11l7,8l3,7l0,9l-2,7l-5,10l-14,19l-33,33l-28,23l-26,19l-23,15l-27,15l24,-7l34,-14l30,-15l29,-17l31,-22l16,-14l17,-19l11,-19l4,-13l0,-17l-4,-13l-9,-13l-11,-10l-15,-10l-40,-20l-24,-15l-11,-11l-5,-9l-2,-7l1,-15l4,-12l10,-19l13,-18l11,-13l36,-36l40,-34z"/>
   <path id="svg_4" clip-rule="evenodd" fill-rule="evenodd" fill="#005EAD" d="m355,95l-180,-20l-12,13l-13,18l4,2l163,12l12,2l14,168l-5,2l-14,1l-81,12l-14,18l-24,22l-5,61l53,-16l-6,-51l2,-2l124,-23l-18,-219zm-92,304l-76,24l-1,-3l5,-39l0,-9l-22,74l94,-47zm-32,28l-77,39l-1,-2l16,-55l-32,80l2,0l92,-62z"/>
  </g>
 </g>
</svg>